# xmcd CD database file
#
# Track frame offsets:
#	150
#	36189
#	90557
#	115369
#	139235
#	140987
#	176394
#	182154
#	209273
#
# Disc length: 3340 seconds
#
# Revision: 0
# Processed by: cddbd v1.5.2PL0 Copyright (c) Steve Scherf et al.
# Submitted via: CDex 1.91
#
DISCID=850d0a09
DTITLE=Poncho Sanchez and his Latin Jazz Band - Live in Hollywood
DYEAR=2012
DGENRE=Jazz
TTITLE0=Promenade
TTITLE1=Poncho Sanchez Medley
TTITLE2=Mambo Inn/On Green Dolphin Street
TTITLE3=Crosscut Saw
TTITLE4=Intro
TTITLE5=Morning
TTITLE6=A Ti Nama
TTITLE7=Afro Blue
TTITLE8=Son Son Charari
EXTD=YEAR: 2012
EXTT0=
EXTT1=
EXTT2=
EXTT3=
EXTT4=
EXTT5=
EXTT6=
EXTT7=
EXTT8=
PLAYORDER=
